<?xml version="1.0" encoding="utf-8"?>
<!-- Generator: Adobe Illustrator 27.5.0, SVG Export Plug-In . SVG Version: 6.00 Build 0)  -->
<svg version="1.1" xmlns="http://www.w3.org/2000/svg" xmlns:xlink="http://www.w3.org/1999/xlink" x="0px" y="0px"
	 viewBox="0 0 500 500" style="enable-background:new 0 0 500 500;" xml:space="preserve">
<g id="Water">
	<g id="Floor_7_">
		<ellipse id="Floor_10_" style="fill:#27DEBF;" cx="253.477" cy="324.385" rx="227.633" ry="140.055"/>
		<ellipse id="Floor_9_" style="opacity:0.7;fill:#FFFFFF;" cx="253.477" cy="324.385" rx="227.633" ry="140.055"/>
	</g>
</g>
<g id="Arrow">
	<g id="Arrow_1_">
		<polygon style="fill:#263238;" points="197.711,246.751 223.159,232.076 220.494,262.642 		"/>
		<polygon style="fill:#37474F;" points="213.637,238.807 171.34,141.128 143.143,169.617 118.469,94.323 93.797,120.778 
			72.648,55.658 47.975,82.113 54.321,88.031 68.945,72.351 90.094,137.469 114.797,110.982 139.319,185.815 168.478,156.355 
			205.674,242.255 		"/>
		<g>
			<polygon style="fill:#455A64;" points="72.648,55.658 80.492,51.13 100.705,113.37 93.797,120.778 			"/>
			<polygon style="fill:#455A64;" points="126.313,89.794 118.469,94.323 143.143,169.617 150.192,162.664 			"/>
			<polygon style="fill:#455A64;" points="179.184,136.599 171.34,141.128 213.637,238.807 221.481,234.279 			"/>
		</g>
		<g>
			<polygon style="fill:#263238;" points="54.321,88.031 70.925,78.445 68.945,72.351 			"/>
			<polygon style="fill:#263238;" points="90.094,137.469 102.441,130.352 117.335,118.727 114.797,110.982 			"/>
			<polygon style="fill:#263238;" points="139.319,185.815 151.666,178.699 171.236,162.726 168.478,156.355 			"/>
		</g>
		<polygon style="fill:#455A64;" points="204.835,243.881 230.283,229.205 227.929,259.742 		"/>
		<polygon style="fill:#37474F;" points="220.494,262.642 227.929,259.742 204.835,243.881 197.711,246.751 		"/>
		<polygon style="fill:#263238;" points="223.159,232.076 230.283,229.205 221.481,234.279 221.053,233.29 		"/>
	</g>
</g>
<g id="Coins">
	<g id="Coin_5_">
		<path style="opacity:0.15;" d="M152.515,410.05c2.541,1.453,4.327,2.879,7.016,3.013c3.544,0.178,7.291-1.254,10.61-3.863
			c0,0-2.829,4.955-9.248,5.366C154.97,414.945,152.515,410.05,152.515,410.05z"/>
		<path style="opacity:0.15;" d="M152.909,414.155c1.574,1.348,4.829,2.695,8.419,2.102c0,0-1.284,1.163-4.447,0.63
			C153.578,416.33,152.909,414.155,152.909,414.155z"/>
		<path style="opacity:0.15;" d="M209.017,375.687c5.988,2.177,9.762,4.732,9.02,6.495c-0.742,1.763-4.463,4.546-4.463,4.546
			s5.113-2.783,6.505-4.361c1.392-1.577-0.088-3.062-3.987-4.732C212.191,375.966,209.017,375.687,209.017,375.687z"/>
		<path style="opacity:0.1;" d="M169.058,418.776c8.816-2.982,18.354-9.332,26.532-13.623c8.639-4.534,17.038-9.523,25.184-14.892
			c2.398-1.581,4.945-3.506,5.496-6.325c0.439-2.247-0.41-3.192-2.248-4.525c-3.691-2.677-7.807-4.766-12.144-6.173
			c-2.043-0.663-3.996-1.387-6.144-1.287c-2.43,0.113-4.844,0.448-7.25,0.794c-2.971,0.427-5.99,1.992-8.684,3.277
			c-2.938,1.401-5.791,2.97-8.642,4.539c-6.255,3.444-12.51,6.888-18.766,10.332c-6.805,3.746-10.51,5.723-18.566,10.938
			c-1.585,1.026-5.851,3.64-5.915,5.526c-0.065,1.909,1.378,3.516,2.847,4.738C148.575,418.598,159.506,422.007,169.058,418.776z"/>
		<g>
			<defs>
				<path id="SVGID_1_" d="M148.204,403.702l12.343,7.126l55.543-32.068c0-8.659-13.165-30.536-35.498-21.642
					S149.709,392.881,148.204,403.702z"/>
			</defs>
			<clipPath id="SVGID_00000037676051837384262960000005864102258653347203_">
				<use xlink:href="#SVGID_1_"  style="overflow:visible;"/>
			</clipPath>
			<g id="XMLID_1139_" style="clip-path:url(#SVGID_00000037676051837384262960000005864102258653347203_);">
				<g id="XMLID_1378_">
					<path style="fill:#27DEBF;" d="M195.921,361.014c-3.992-2.271-9.249-2.244-15.176,0.607
						c-14.022,6.745-26.483,26.736-27.834,44.652c-0.765,10.141,2.197,17.439,7.453,20.642c1.348,0.822,6.566,3.781,7.811,4.521
						c4.016,2.386,9.348,2.405,15.372-0.493c14.022-6.745,26.484-26.736,27.834-44.652c0.777-10.3-2.29-17.666-7.701-20.789
						C202.398,364.761,197.246,361.767,195.921,361.014z"/>
					<path style="opacity:0.25;" d="M195.921,361.014c-3.992-2.271-9.249-2.244-15.176,0.607
						c-14.022,6.745-26.483,26.736-27.834,44.652c-0.765,10.141,2.197,17.439,7.453,20.642c1.348,0.822,6.566,3.781,7.811,4.521
						c4.016,2.386,9.348,2.405,15.372-0.493c14.022-6.745,26.484-26.736,27.834-44.652c0.777-10.3-2.29-17.666-7.701-20.789
						C202.398,364.761,197.246,361.767,195.921,361.014z"/>
					<path style="opacity:0.1;" d="M209.285,397.246l-42.232-24.383c-7.667,9.196-13.262,21.742-14.141,33.41
						c-0.765,10.141,2.197,17.439,7.453,20.642c1.348,0.822,6.566,3.781,7.811,4.521c4.016,2.386,9.348,2.405,15.372-0.493
						C194.746,425.557,204.941,411.724,209.285,397.246z"/>
					<path style="opacity:0.1;" d="M155.248,394.553c-1.229,3.901-2.046,7.859-2.337,11.721
						c-0.765,10.141,2.197,17.439,7.453,20.642c1.348,0.822,6.566,3.781,7.811,4.521c4.016,2.386,9.348,2.405,15.372-0.493
						c5.091-2.449,9.973-6.648,14.194-11.857L155.248,394.553z"/>
					<path id="XMLID_2429_" style="fill:#27DEBF;" d="M188.44,366.064c-14.022,6.745-26.483,26.736-27.834,44.652
						c-1.351,17.916,8.921,26.972,22.943,20.227c14.022-6.745,26.483-26.736,27.834-44.652
						C212.733,368.375,202.461,359.319,188.44,366.064z"/>
					<path id="XMLID_2201_" style="opacity:0.2;" d="M188.44,366.064c-14.022,6.745-26.483,26.736-27.834,44.652
						c-1.351,17.916,8.921,26.972,22.943,20.227c14.022-6.745,26.483-26.736,27.834-44.652
						C212.733,368.375,202.461,359.319,188.44,366.064z"/>
					<g id="XMLID_2086_">
						<path id="XMLID_2174_" style="fill:#27DEBF;" d="M202.331,390.376c-0.656,5.474-2.891,11.5-6.304,16.975
							c-3.41,5.47-7.611,9.771-11.822,12.102c-4.462,2.472-8.467,2.467-11.271-0.004c-2.804-2.472-3.967-7.024-3.275-12.82
							c0.647-5.473,2.886-11.504,6.296-16.974c3.413-5.475,7.611-9.771,11.829-12.104c4.459-2.466,8.459-2.466,11.263,0.006
							C201.852,380.03,203.019,384.586,202.331,390.376z"/>
						<path id="XMLID_2090_" style="opacity:0.4;" d="M202.331,390.376c-0.656,5.474-2.891,11.5-6.304,16.975
							c-3.41,5.47-7.611,9.771-11.822,12.102c-4.462,2.472-8.467,2.467-11.271-0.004c-2.804-2.472-3.967-7.024-3.275-12.82
							c0.647-5.473,2.886-11.504,6.296-16.974c3.413-5.475,7.611-9.771,11.829-12.104c4.459-2.466,8.459-2.466,11.263,0.006
							C201.852,380.03,203.019,384.586,202.331,390.376z"/>
						<path id="XMLID_2087_" style="fill:#27DEBF;" d="M204.818,368.302c-3.876-3.418-9.473-3.635-15.749-0.62
							c-6.542,3.154-12.967,9.402-18.076,17.599c-5.109,8.197-8.264,17.317-8.9,25.678c-0.606,8.025,1.2,14.323,5.077,17.741
							c3.883,3.423,9.469,3.642,15.749,0.619c6.548-3.148,12.969-9.39,18.078-17.586c5.109-8.196,8.269-17.323,8.898-25.69
							C210.496,378.024,208.7,371.725,204.818,368.302z M199.048,377.558c2.804,2.472,3.971,7.028,3.283,12.818
							c-0.656,5.474-2.891,11.5-6.304,16.975c-3.41,5.47-7.611,9.771-11.822,12.102c-4.462,2.472-8.467,2.467-11.271-0.004
							c-2.804-2.472-3.967-7.024-3.275-12.82c0.647-5.473,2.886-11.504,6.296-16.974c3.413-5.475,7.611-9.771,11.829-12.104
							C192.244,375.086,196.244,375.086,199.048,377.558z"/>
					</g>
				</g>
				<g id="XMLID_565_">
					
						<ellipse id="XMLID_1375_" transform="matrix(0.4792 -0.8777 0.8777 0.4792 -252.9038 370.7939)" style="opacity:0.2;" cx="185.995" cy="398.505" rx="23.514" ry="11.869"/>
					
						<ellipse id="XMLID_1368_" transform="matrix(0.4792 -0.8777 0.8777 0.4792 -252.9038 370.7939)" style="fill:#27DEBF;" cx="185.995" cy="398.505" rx="23.514" ry="11.869"/>
					
						<ellipse id="XMLID_591_" transform="matrix(0.4792 -0.8777 0.8777 0.4792 -252.9038 370.7939)" style="opacity:0.6;" cx="185.995" cy="398.505" rx="23.514" ry="11.869"/>
					<path id="XMLID_590_" style="fill:#27DEBF;" d="M198.759,387.999c-1.292,10.878-9.13,23.452-17.506,28.084
						c-3.464,1.915-6.474,2.169-8.726,1.043c-1.56-2.235-2.232-5.735-1.697-10.233c1.292-10.878,9.13-23.452,17.506-28.084
						c3.464-1.916,6.475-2.169,8.726-1.044C198.622,380,199.293,383.5,198.759,387.999z"/>
					<path id="XMLID_567_" style="opacity:0.5;" d="M198.759,387.999c-1.292,10.878-9.13,23.452-17.506,28.084
						c-3.464,1.915-6.474,2.169-8.726,1.043c-1.56-2.235-2.232-5.735-1.697-10.233c1.292-10.878,9.13-23.452,17.506-28.084
						c3.464-1.916,6.475-2.169,8.726-1.044C198.622,380,199.293,383.5,198.759,387.999z"/>
				</g>
				<g>
					<path style="fill:#27DEBF;" d="M194.266,389.606c-0.659-0.481-2.294-1.311-3.086-1.782c-0.768-0.457-1.482-0.452-2.26,0.019
						l0.713-2.17c-0.383-0.048-3.086-1.782-3.086-1.782c-0.383-0.048-0.775,0.014-1.159,0.144c-0.703,0.254-1.413,0.795-2.111,1.533
						c-1.24,1.31-2.321,3-3.381,5.047l-1.674-0.897l-2.594,5.815l0.347,0.259l1.198,0.884c0,0-1.445,2.726-1.725,6.808
						c-0.012,0.173-0.017,0.326-0.022,0.478c-0.061,1.681,0.294,2.937,1.161,3.562c-0.001,0.016-0.001,0.016-0.001,0.016
						c0.652,0.467,2.667,1.505,3.087,1.766c-0.001,0.016-0.001,0.016-0.001,0.016c0.829,0.594,1.732,0.354,2.652-0.38l-0.601,1.848
						l3.086,1.782c1.884-0.069,4.061-2.341,6.359-6.703l1.552,1.122l2.619-5.868l-1.552-1.122c0.971-2.557,1.55-4.816,1.661-6.587
						l0.003-0.047C195.552,391.576,195.184,390.273,194.266,389.606z"/>
					<g id="XMLID_515_">
						<path id="XMLID_527_" style="fill:#27DEBF;" d="M179.061,397.576l1.198,0.884c0,0-1.445,2.726-1.725,6.808
							c-0.012,0.174-0.017,0.326-0.022,0.478c-0.061,1.681,0.294,2.937,1.161,3.562c-0.001,0.016-0.001,0.016-0.001,0.016
							c0.924,0.662,1.941,0.293,2.969-0.648c0.087-0.08,0.181-0.181,0.268-0.26l0.029-0.027c0.094-0.1,0.188-0.201,0.282-0.302
							c0.082-0.09,0.165-0.18,0.249-0.286c0.036-0.048,0.071-0.079,0.101-0.122c0.065-0.074,0.13-0.148,0.19-0.233
							c0.536-0.667,1.063-1.445,1.575-2.239c0.25-0.391,0.501-0.798,0.748-1.216c0.357-0.592,0.708-1.195,1.042-1.766
							c0.136-0.243,0.266-0.465,0.396-0.687c0.941-1.643,1.643-2.832,2.191-3.511c0.346-0.434,0.635-0.684,0.889-0.724
							c0.138-0.023,0.266,0.008,0.386,0.09c0.467,0.341,0.463,1.512-0.625,3.955c-1.159,2.596-2.24,3.748-3.075,3.61l-2.478,7.615
							c1.884-0.069,4.061-2.341,6.359-6.703l1.552,1.122l2.619-5.868l-1.552-1.122c0.971-2.557,1.551-4.816,1.661-6.587l0.003-0.047
							c0.101-1.792-0.267-3.095-1.186-3.762c-2.039-1.489-4.38,1.761-6.574,5.467c-2.04,3.462-3.578,6.745-4.57,6.026
							c-0.617-0.455-0.318-1.955,0.538-3.875c1.365-3.066,2.668-3.711,3.343-3.545l2.63-8.005c-0.383-0.048-0.774,0.014-1.159,0.144
							c-0.702,0.254-1.413,0.795-2.111,1.533c-1.24,1.31-2.444,3.24-3.504,5.287l-1.551-1.137l-2.594,5.815L179.061,397.576z"/>
					</g>
					<g>
						<polygon style="fill:#F5F5F5;" points="178.714,397.317 181.474,392.231 182.858,392.639 181.308,391.502 						"/>
						<path style="fill:#F5F5F5;" d="M188.92,386.297l-1.917,7.382l0,0l0,0l2.63-8.004c-0.383-0.048-0.774,0.014-1.159,0.144
							c-0.702,0.254-1.412,0.795-2.111,1.533c-0.468,0.495-0.932,1.078-1.384,1.723c0.022-0.028,0.042-0.051,0.066-0.083
							C186.595,386.937,188.92,386.297,188.92,386.297z"/>
						<path style="fill:#F5F5F5;" d="M187.286,404.958l-2.478,7.614v0l2.629-7.119c0,0,1.531-0.62,2.451-2.74
							c0.85-1.959,0.979-2.624,0.979-2.624l-0.01,0.01c-0.133,0.376-0.29,0.782-0.497,1.248
							C189.202,403.944,188.121,405.096,187.286,404.958z"/>
						<polygon style="fill:#F5F5F5;" points="191.167,405.87 192.631,406.639 195.338,401.124 192.719,406.991 						"/>
					</g>
					<g>
						<path style="opacity:0.3;" d="M178.511,405.746c0.005-0.152,0.01-0.305,0.022-0.478c0.28-4.082,1.725-6.808,1.725-6.808
							l-1.198-0.884l-0.347-0.259l2.594-5.815l1.55,1.137c1.06-2.047,2.264-3.977,3.504-5.287c0.699-0.738,1.409-1.279,2.111-1.533
							c0.385-0.13,0.776-0.193,1.159-0.144l-0.345,1.051l0.345-1.051c-0.383-0.048-3.086-1.782-3.086-1.782
							c-0.383-0.048-0.775,0.014-1.159,0.144c-0.703,0.254-1.413,0.795-2.111,1.533c-1.24,1.31-2.321,3-3.381,5.047l-1.674-0.897
							l-2.594,5.815l0.347,0.259l1.198,0.884c0,0-1.445,2.726-1.725,6.808c-0.012,0.173-0.017,0.326-0.022,0.478
							c-0.061,1.681,0.294,2.937,1.161,3.562c-0.001,0.016-0.001,0.016-0.001,0.016c0.652,0.467,2.667,1.505,3.087,1.766
							C178.805,408.682,178.451,407.426,178.511,405.746z"/>
						<path style="opacity:0.3;" d="M190.361,401.348c1.088-2.443,1.092-3.614,0.625-3.955c-0.119-0.083-0.248-0.113-0.386-0.09
							c-0.253,0.04-0.543,0.29-0.889,0.724c-0.548,0.678-1.25,1.867-2.191,3.511c-0.13,0.222-0.259,0.444-0.396,0.687
							c-0.333,0.571-0.685,1.173-1.042,1.766c-0.246,0.417-0.498,0.825-0.748,1.216c-0.512,0.793-1.039,1.571-1.575,2.239
							c-0.06,0.085-0.125,0.159-0.19,0.233c-0.03,0.043-0.065,0.074-0.101,0.122c-0.083,0.106-0.166,0.196-0.248,0.286
							c-0.094,0.101-0.188,0.202-0.282,0.302l-0.029,0.027c-0.087,0.08-0.181,0.181-0.268,0.26
							c-0.106,0.097-0.212,0.184-0.318,0.268c0,0,0,0,0,0l-0.601,1.848l3.086,1.782l2.478-7.615
							C188.121,405.096,189.202,403.944,190.361,401.348z"/>
						<path style="opacity:0.3;" d="M183.661,397.224c-0.856,1.921-1.155,3.42-0.538,3.875c0.991,0.719,2.529-2.564,4.57-6.026
							c2.193-3.706,4.535-6.956,6.574-5.467c-0.659-0.481-2.294-1.311-3.086-1.782c-0.768-0.457-1.482-0.452-2.26,0.019
							l-1.917,5.835C186.328,393.513,185.026,394.158,183.661,397.224z"/>
						<path style="opacity:0.1;" d="M183.661,397.224c-0.856,1.921-1.155,3.42-0.538,3.875c0.991,0.719,2.529-2.564,4.57-6.026
							c2.193-3.706,4.535-6.956,6.574-5.467c-0.659-0.481-2.294-1.311-3.086-1.782c-0.768-0.457-1.482-0.452-2.26,0.019
							l-1.917,5.835C186.328,393.513,185.026,394.158,183.661,397.224z"/>
						<polygon style="opacity:0.4;" points="175.628,395.535 178.714,397.317 180.258,398.46 177.173,396.678 						"/>
						<path style="opacity:0.1;" d="M178.533,405.267c0.28-4.082,1.725-6.808,1.725-6.808l-3.086-1.781c0,0-1.445,2.726-1.725,6.808
							c-0.012,0.173-0.017,0.326-0.022,0.478c-0.061,1.681,0.294,2.937,1.161,3.562c-0.001,0.016-0.001,0.016-0.001,0.016
							c0.652,0.467,2.667,1.505,3.087,1.766c-0.867-0.625-1.222-1.881-1.161-3.562C178.516,405.593,178.521,405.441,178.533,405.267
							z"/>
						<path style="opacity:0.1;" d="M185.335,405.206c-0.512,0.793-1.039,1.571-1.575,2.239c-0.06,0.085-0.125,0.159-0.19,0.233
							c-0.03,0.043-0.065,0.074-0.101,0.122c-0.083,0.106-0.166,0.196-0.248,0.286c-0.094,0.101-0.188,0.202-0.282,0.302
							l-0.029,0.027c-0.087,0.08-0.181,0.181-0.268,0.26c-0.106,0.097-0.212,0.184-0.318,0.268c0,0,0,0,0,0l-0.601,1.848
							l3.086,1.782l2.478-7.615l-1.333-0.757C185.749,404.543,185.542,404.883,185.335,405.206z"/>
					</g>
				</g>
				<g id="XMLID_448_">
					<path id="XMLID_485_" style="fill:#F5F5F5;" d="M182.692,428.745c9.73-4.375,18.304-17.013,18.304-17.013
						c-5.109,8.196-11.53,14.438-18.078,17.586c-6.28,3.023-11.866,2.803-15.749-0.619
						C167.169,428.699,172.794,433.195,182.692,428.745z"/>
					<path id="XMLID_450_" style="fill:#F5F5F5;" d="M168.301,386.68c5.18-9.181,12.423-16.904,20.139-20.616
						c8.024-3.86,14.82-2.545,18.913,2.643c0,0-6.885-8.112-18.956-1.855C176.325,373.109,168.301,386.68,168.301,386.68z"/>
				</g>
			</g>
		</g>
	</g>
	<g id="Coin_4_">
		<path style="opacity:0.15;" d="M75.777,306.768c-4.22,3.822-5.393,4.867-4.87,6.294C71.43,314.49,77.594,318,77.594,318
			s-5.581-1.564-7.527-3.056c-1.947-1.492-1.809-2.722,0-4.737C71.875,308.192,75.777,306.768,75.777,306.768z"/>
		<path style="opacity:0.15;" d="M128.627,279.337c5.779,4.413,9.73,7.429,6.597,10.894c-3.133,3.465-14.812,9.33-14.812,9.33
			s11.815-3.579,16.855-7.856C142.308,287.428,136.335,283.234,128.627,279.337z"/>
		<path style="opacity:0.15;" d="M68.099,309.697c-1.152,1.632-1.68,3.792,0.288,5.664c0,0-2.322-0.768-2.304-2.832
			C66.1,310.547,68.099,309.697,68.099,309.697z"/>
		<path style="opacity:0.1;" d="M89.601,322.691c8.816-2.982,18.354-9.332,26.532-13.623c8.639-4.534,17.038-9.523,25.184-14.892
			c2.398-1.581,4.945-3.506,5.496-6.325c0.439-2.247-0.41-3.192-2.248-4.525c-3.691-2.677-7.807-4.766-12.144-6.173
			c-2.043-0.663-3.996-1.387-6.144-1.287c-2.43,0.113-4.844,0.448-7.25,0.794c-2.971,0.427-5.99,1.992-8.683,3.277
			c-2.938,1.401-5.791,2.97-8.642,4.539c-6.255,3.444-12.51,6.888-18.765,10.332c-6.805,3.747-10.509,5.723-18.566,10.938
			c-1.585,1.026-5.851,3.64-5.915,5.526c-0.065,1.909,1.378,3.516,2.847,4.738C69.118,322.512,80.049,325.922,89.601,322.691z"/>
		<g>
			<defs>
				<path id="SVGID_00000085953344076428576680000005366044338366367166_" d="M72.046,311.649l9.258,5.344l53.979-31.165
					c0,0,0.002-38.295-30.254-29.962C67.397,266.231,72.046,311.649,72.046,311.649z"/>
			</defs>
			<clipPath id="SVGID_00000159458218741728975890000012532699507200122790_">
				<use xlink:href="#SVGID_00000085953344076428576680000005366044338366367166_"  style="overflow:visible;"/>
			</clipPath>
			<g id="XMLID_1072_" style="clip-path:url(#SVGID_00000159458218741728975890000012532699507200122790_);">
				<g id="XMLID_1172_">
					<path style="fill:#27DEBF;" d="M116.147,257.918c-3.992-2.271-9.249-2.244-15.176,0.607
						c-14.022,6.745-26.483,26.736-27.834,44.652c-0.765,10.141,2.197,17.439,7.453,20.642c1.348,0.822,6.566,3.781,7.811,4.521
						c4.016,2.386,9.348,2.405,15.372-0.493c14.022-6.745,26.484-26.736,27.834-44.652c0.777-10.3-2.29-17.667-7.701-20.789
						C122.623,261.666,117.471,258.672,116.147,257.918z"/>
					<path style="opacity:0.25;" d="M116.147,257.918c-3.992-2.271-9.249-2.244-15.176,0.607
						c-14.022,6.745-26.483,26.736-27.834,44.652c-0.765,10.141,2.197,17.439,7.453,20.642c1.348,0.822,6.566,3.781,7.811,4.521
						c4.016,2.386,9.348,2.405,15.372-0.493c14.022-6.745,26.484-26.736,27.834-44.652c0.777-10.3-2.29-17.667-7.701-20.789
						C122.623,261.666,117.471,258.672,116.147,257.918z"/>
					<path style="opacity:0.1;" d="M129.51,294.15l-42.232-24.383c-7.667,9.196-13.262,21.742-14.141,33.41
						c-0.765,10.141,2.197,17.439,7.453,20.642c1.348,0.822,6.566,3.781,7.811,4.521c4.016,2.386,9.348,2.405,15.373-0.493
						C114.971,322.462,125.167,308.628,129.51,294.15z"/>
					<path style="opacity:0.1;" d="M75.474,291.457c-1.229,3.901-2.046,7.859-2.337,11.721c-0.765,10.141,2.197,17.439,7.453,20.642
						c1.348,0.822,6.566,3.781,7.811,4.521c4.016,2.386,9.348,2.405,15.373-0.493c5.091-2.449,9.973-6.648,14.194-11.857
						L75.474,291.457z"/>
					<path id="XMLID_1189_" style="fill:#27DEBF;" d="M108.665,262.968c-14.022,6.745-26.483,26.736-27.834,44.652
						c-1.351,17.916,8.921,26.972,22.943,20.227c14.022-6.745,26.483-26.736,27.834-44.652
						C132.959,265.28,122.687,256.223,108.665,262.968z"/>
					<path id="XMLID_1182_" style="opacity:0.2;" d="M108.665,262.968c-14.022,6.745-26.483,26.736-27.834,44.652
						c-1.351,17.916,8.921,26.972,22.943,20.227c14.022-6.745,26.483-26.736,27.834-44.652
						C132.959,265.28,122.687,256.223,108.665,262.968z"/>
					<g id="XMLID_1173_">
						<path id="XMLID_1181_" style="fill:#27DEBF;" d="M122.557,287.281c-0.656,5.474-2.891,11.5-6.304,16.975
							c-3.41,5.47-7.611,9.771-11.821,12.102c-4.462,2.472-8.467,2.467-11.271-0.004c-2.804-2.472-3.967-7.024-3.275-12.82
							c0.647-5.473,2.886-11.504,6.296-16.974c3.413-5.475,7.611-9.771,11.829-12.104c4.459-2.466,8.459-2.466,11.263,0.006
							C122.077,276.934,123.245,281.49,122.557,287.281z"/>
						<path id="XMLID_1177_" style="opacity:0.4;" d="M122.557,287.281c-0.656,5.474-2.891,11.5-6.304,16.975
							c-3.41,5.47-7.611,9.771-11.821,12.102c-4.462,2.472-8.467,2.467-11.271-0.004c-2.804-2.472-3.967-7.024-3.275-12.82
							c0.647-5.473,2.886-11.504,6.296-16.974c3.413-5.475,7.611-9.771,11.829-12.104c4.459-2.466,8.459-2.466,11.263,0.006
							C122.077,276.934,123.245,281.49,122.557,287.281z"/>
						<path id="XMLID_1174_" style="fill:#27DEBF;" d="M125.043,265.206c-3.876-3.418-9.473-3.635-15.749-0.62
							c-6.542,3.154-12.967,9.402-18.076,17.599c-5.109,8.196-8.265,17.317-8.9,25.678c-0.606,8.025,1.2,14.323,5.076,17.74
							c3.883,3.423,9.469,3.642,15.749,0.62c6.548-3.148,12.969-9.39,18.078-17.586c5.109-8.196,8.269-17.323,8.898-25.69
							C130.722,274.928,128.926,268.629,125.043,265.206z M119.273,274.462c2.804,2.472,3.971,7.028,3.283,12.819
							c-0.656,5.474-2.891,11.5-6.304,16.975c-3.41,5.47-7.611,9.771-11.821,12.102c-4.462,2.472-8.467,2.467-11.271-0.004
							c-2.804-2.472-3.967-7.024-3.275-12.82c0.647-5.473,2.886-11.504,6.296-16.974c3.413-5.475,7.611-9.771,11.829-12.104
							C112.469,271.991,116.469,271.99,119.273,274.462z"/>
					</g>
				</g>
				<g id="XMLID_1149_">
					
						<ellipse id="XMLID_1170_" transform="matrix(0.4792 -0.8777 0.8777 0.4792 -203.9629 247.0824)" style="opacity:0.2;" cx="106.221" cy="295.409" rx="23.514" ry="11.869"/>
					
						<ellipse id="XMLID_1164_" transform="matrix(0.4792 -0.8777 0.8777 0.4792 -203.9629 247.0824)" style="fill:#27DEBF;" cx="106.221" cy="295.409" rx="23.514" ry="11.869"/>
					
						<ellipse id="XMLID_1162_" transform="matrix(0.4792 -0.8777 0.8777 0.4792 -203.9629 247.0824)" style="opacity:0.6;" cx="106.221" cy="295.409" rx="23.514" ry="11.869"/>
					<path id="XMLID_1152_" style="fill:#27DEBF;" d="M118.984,284.903c-1.292,10.878-9.13,23.452-17.506,28.084
						c-3.463,1.915-6.474,2.169-8.726,1.043c-1.56-2.235-2.231-5.735-1.697-10.233c1.292-10.878,9.13-23.452,17.506-28.084
						c3.464-1.916,6.475-2.169,8.726-1.044C118.847,276.904,119.519,280.404,118.984,284.903z"/>
					<path id="XMLID_1150_" style="opacity:0.5;" d="M118.984,284.903c-1.292,10.878-9.13,23.452-17.506,28.084
						c-3.463,1.915-6.474,2.169-8.726,1.043c-1.56-2.235-2.231-5.735-1.697-10.233c1.292-10.878,9.13-23.452,17.506-28.084
						c3.464-1.916,6.475-2.169,8.726-1.044C118.847,276.904,119.519,280.404,118.984,284.903z"/>
				</g>
				<g>
					<path style="fill:#27DEBF;" d="M114.491,286.51c-0.659-0.481-2.294-1.311-3.086-1.781c-0.768-0.457-1.482-0.452-2.26,0.019
						l0.713-2.17c-0.384-0.048-3.086-1.782-3.086-1.782c-0.383-0.048-0.774,0.014-1.159,0.144c-0.702,0.254-1.413,0.795-2.111,1.533
						c-1.24,1.31-2.321,3-3.381,5.047l-1.674-0.897l-2.594,5.815l0.347,0.259l1.198,0.884c0,0-1.445,2.726-1.725,6.808
						c-0.012,0.173-0.017,0.326-0.022,0.478c-0.061,1.68,0.294,2.937,1.161,3.562c-0.001,0.016-0.001,0.016-0.001,0.016
						c0.652,0.467,2.667,1.505,3.087,1.766c-0.001,0.016-0.001,0.016-0.001,0.016c0.829,0.594,1.733,0.354,2.653-0.38l-0.602,1.848
						l3.086,1.781c1.884-0.069,4.061-2.34,6.359-6.703l1.552,1.122l2.619-5.868l-1.552-1.122c0.971-2.557,1.55-4.816,1.661-6.587
						l0.003-0.047C115.777,288.481,115.41,287.177,114.491,286.51z"/>
					<g id="XMLID_1145_">
						<path id="XMLID_1146_" style="fill:#27DEBF;" d="M99.286,294.48l1.198,0.884c0,0-1.445,2.726-1.726,6.808
							c-0.012,0.174-0.017,0.326-0.022,0.478c-0.061,1.681,0.294,2.937,1.161,3.562c-0.001,0.016-0.001,0.016-0.001,0.016
							c0.924,0.662,1.941,0.293,2.97-0.648c0.087-0.08,0.181-0.181,0.268-0.26l0.029-0.027c0.094-0.1,0.188-0.201,0.282-0.302
							c0.082-0.09,0.165-0.18,0.248-0.286c0.036-0.048,0.071-0.079,0.101-0.122c0.065-0.074,0.13-0.148,0.19-0.233
							c0.536-0.667,1.063-1.445,1.575-2.239c0.25-0.391,0.501-0.798,0.748-1.216c0.357-0.592,0.708-1.195,1.042-1.765
							c0.136-0.243,0.266-0.465,0.396-0.687c0.941-1.643,1.643-2.832,2.191-3.511c0.346-0.434,0.635-0.684,0.889-0.724
							c0.138-0.023,0.266,0.008,0.386,0.09c0.467,0.341,0.463,1.512-0.625,3.955c-1.159,2.596-2.24,3.748-3.075,3.61l-2.478,7.615
							c1.884-0.069,4.061-2.341,6.359-6.703l1.552,1.122l2.62-5.868l-1.552-1.122c0.971-2.557,1.551-4.816,1.661-6.587l0.003-0.047
							c0.101-1.792-0.267-3.095-1.186-3.762c-2.039-1.489-4.38,1.761-6.574,5.467c-2.04,3.462-3.578,6.745-4.569,6.026
							c-0.617-0.455-0.318-1.955,0.538-3.875c1.365-3.066,2.668-3.711,3.343-3.545l2.63-8.005c-0.383-0.048-0.774,0.014-1.159,0.144
							c-0.702,0.254-1.413,0.795-2.111,1.533c-1.24,1.31-2.444,3.241-3.504,5.288l-1.551-1.137l-2.594,5.815L99.286,294.48z"/>
					</g>
					<g>
						<polygon style="fill:#F5F5F5;" points="98.939,294.221 101.699,289.135 103.084,289.543 101.533,288.406 						"/>
						<path style="fill:#F5F5F5;" d="M109.146,283.201l-1.917,7.382l0,0l0,0l2.63-8.004c-0.384-0.048-0.774,0.014-1.159,0.144
							c-0.702,0.254-1.412,0.795-2.111,1.533c-0.468,0.495-0.932,1.079-1.384,1.723c0.022-0.028,0.042-0.051,0.066-0.083
							C106.82,283.841,109.146,283.201,109.146,283.201z"/>
						<path style="fill:#F5F5F5;" d="M107.511,301.862l-2.478,7.614v0l2.629-7.119c0,0,1.531-0.62,2.451-2.74
							c0.85-1.959,0.979-2.623,0.979-2.623l-0.01,0.01c-0.133,0.376-0.29,0.782-0.497,1.248
							C109.427,300.848,108.346,302,107.511,301.862z"/>
						<polygon style="fill:#F5F5F5;" points="111.393,302.774 112.856,303.543 115.564,298.028 112.944,303.896 						"/>
					</g>
					<g>
						<path style="opacity:0.3;" d="M98.737,302.65c0.005-0.152,0.01-0.305,0.022-0.478c0.28-4.082,1.725-6.808,1.725-6.808
							l-1.198-0.884l-0.347-0.259l2.594-5.815l1.551,1.137c1.06-2.047,2.264-3.978,3.504-5.288c0.699-0.738,1.409-1.279,2.111-1.533
							c0.385-0.13,0.776-0.193,1.159-0.144l-0.345,1.051l0.345-1.051c-0.384-0.048-3.086-1.782-3.086-1.782
							c-0.383-0.048-0.774,0.014-1.159,0.144c-0.702,0.254-1.413,0.795-2.111,1.533c-1.24,1.31-2.321,3-3.381,5.047l-1.674-0.897
							l-2.594,5.815l0.347,0.259l1.198,0.884c0,0-1.445,2.726-1.725,6.808c-0.012,0.173-0.017,0.326-0.022,0.478
							c-0.061,1.68,0.294,2.937,1.161,3.562c-0.001,0.016-0.001,0.016-0.001,0.016c0.652,0.467,2.667,1.505,3.087,1.766
							C99.031,305.587,98.676,304.331,98.737,302.65z"/>
						<path style="opacity:0.3;" d="M110.586,298.252c1.088-2.443,1.092-3.614,0.625-3.955c-0.119-0.083-0.248-0.113-0.386-0.09
							c-0.253,0.04-0.543,0.29-0.889,0.724c-0.548,0.678-1.25,1.867-2.191,3.511c-0.13,0.222-0.259,0.444-0.396,0.687
							c-0.334,0.571-0.685,1.173-1.042,1.765c-0.246,0.418-0.498,0.825-0.748,1.216c-0.512,0.793-1.039,1.571-1.575,2.239
							c-0.06,0.085-0.125,0.159-0.19,0.233c-0.03,0.043-0.065,0.074-0.101,0.122c-0.083,0.106-0.166,0.196-0.248,0.286
							c-0.094,0.101-0.188,0.202-0.282,0.302l-0.029,0.027c-0.087,0.08-0.181,0.181-0.268,0.26
							c-0.106,0.097-0.212,0.184-0.318,0.268c0,0,0,0,0,0l-0.602,1.848l3.086,1.781l2.478-7.615
							C108.346,302,109.427,300.848,110.586,298.252z"/>
						<path style="opacity:0.3;" d="M103.886,294.128c-0.856,1.921-1.155,3.42-0.538,3.875c0.991,0.719,2.529-2.564,4.569-6.026
							c2.193-3.705,4.535-6.955,6.574-5.467c-0.659-0.481-2.294-1.311-3.086-1.781c-0.768-0.457-1.482-0.452-2.26,0.019
							l-1.917,5.835C106.553,290.418,105.251,291.062,103.886,294.128z"/>
						<path style="opacity:0.1;" d="M103.886,294.128c-0.856,1.921-1.155,3.42-0.538,3.875c0.991,0.719,2.529-2.564,4.569-6.026
							c2.193-3.705,4.535-6.955,6.574-5.467c-0.659-0.481-2.294-1.311-3.086-1.781c-0.768-0.457-1.482-0.452-2.26,0.019
							l-1.917,5.835C106.553,290.418,105.251,291.062,103.886,294.128z"/>
						<polygon style="opacity:0.4;" points="95.853,292.44 98.939,294.221 100.484,295.364 97.398,293.582 						"/>
						<path style="opacity:0.1;" d="M98.758,302.172c0.28-4.082,1.725-6.808,1.725-6.808l-3.086-1.782c0,0-1.445,2.726-1.725,6.808
							c-0.012,0.173-0.017,0.326-0.022,0.478c-0.061,1.68,0.294,2.937,1.161,3.562c-0.001,0.016-0.001,0.016-0.001,0.016
							c0.652,0.467,2.667,1.505,3.087,1.766c-0.867-0.625-1.222-1.881-1.161-3.562C98.742,302.497,98.747,302.345,98.758,302.172z"
							/>
						<path style="opacity:0.1;" d="M105.561,302.11c-0.512,0.793-1.039,1.571-1.575,2.239c-0.06,0.085-0.125,0.159-0.19,0.233
							c-0.03,0.043-0.065,0.074-0.101,0.122c-0.083,0.106-0.166,0.196-0.248,0.286c-0.094,0.101-0.188,0.202-0.282,0.302
							l-0.029,0.027c-0.087,0.08-0.181,0.181-0.268,0.26c-0.106,0.097-0.212,0.184-0.318,0.268c0,0,0,0,0,0l-0.602,1.848
							l3.086,1.781l2.478-7.615l-1.332-0.757C105.974,301.447,105.767,301.787,105.561,302.11z"/>
					</g>
				</g>
				<g id="XMLID_1142_">
					<path id="XMLID_1144_" style="fill:#F5F5F5;" d="M102.917,325.649c9.73-4.375,18.304-17.013,18.304-17.013
						c-5.109,8.196-11.53,14.438-18.078,17.586c-6.28,3.023-11.866,2.803-15.749-0.62C87.395,325.603,93.02,330.099,102.917,325.649
						z"/>
					<path id="XMLID_1143_" style="fill:#F5F5F5;" d="M88.526,283.584c5.18-9.181,12.423-16.904,20.139-20.616
						c8.024-3.86,14.82-2.545,18.913,2.643c0,0-6.884-8.112-18.956-1.855C96.55,270.013,88.526,283.584,88.526,283.584z"/>
				</g>
			</g>
		</g>
		<path style="opacity:0.15;" d="M138.569,283.932c2.368,2.029,4.127,5.074,1.894,7.171c0,0,2.638-1.421,2.368-3.179
			C142.56,286.164,138.569,283.932,138.569,283.932z"/>
	</g>
	<g id="Coin_3_">
		<path style="opacity:0.1;" d="M371.016,409.474c7.308-2.472,15.214-7.735,21.993-11.293c7.161-3.758,14.123-7.894,20.876-12.344
			c1.988-1.31,4.099-2.906,4.556-5.243c0.364-1.863-0.34-2.646-1.863-3.751c-3.06-2.219-6.471-3.951-10.066-5.117
			c-1.694-0.55-3.312-1.15-5.093-1.067c-2.014,0.094-4.015,0.371-6.01,0.658c-2.463,0.354-4.965,1.651-7.198,2.716
			c-2.435,1.162-4.801,2.462-7.163,3.763c-5.185,2.855-10.37,5.71-15.555,8.565c-5.641,3.106-8.712,4.744-15.39,9.067
			c-1.314,0.85-4.85,3.017-4.903,4.581c-0.054,1.583,1.143,2.915,2.36,3.928C354.038,409.327,363.099,412.153,371.016,409.474z"/>
		<g>
			<defs>
				<path id="SVGID_00000109720463452806871270000005449347104848207778_" d="M352.4,397.502l12.343,7.126l55.543-32.068
					c0-8.659-13.165-30.536-35.498-21.642C362.456,359.812,353.905,386.682,352.4,397.502z"/>
			</defs>
			<clipPath id="SVGID_00000133499904380785997710000001782592593753327259_">
				<use xlink:href="#SVGID_00000109720463452806871270000005449347104848207778_"  style="overflow:visible;"/>
			</clipPath>
			<g id="XMLID_670_" style="clip-path:url(#SVGID_00000133499904380785997710000001782592593753327259_);">
				<g id="XMLID_867_">
					<path style="fill:#27DEBF;" d="M397.187,368.316c-3.992-2.271-9.249-2.244-15.176,0.607
						c-14.022,6.745-26.483,26.736-27.834,44.652c-0.765,10.141,2.197,17.439,7.453,20.642c1.348,0.822,6.566,3.781,7.811,4.521
						c4.016,2.386,9.348,2.405,15.372-0.493c14.022-6.745,26.483-26.736,27.834-44.652c0.776-10.3-2.29-17.667-7.701-20.789
						C403.663,372.063,398.511,369.069,397.187,368.316z"/>
					<path style="opacity:0.25;" d="M397.187,368.316c-3.992-2.271-9.249-2.244-15.176,0.607
						c-14.022,6.745-26.483,26.736-27.834,44.652c-0.765,10.141,2.197,17.439,7.453,20.642c1.348,0.822,6.566,3.781,7.811,4.521
						c4.016,2.386,9.348,2.405,15.372-0.493c14.022-6.745,26.483-26.736,27.834-44.652c0.776-10.3-2.29-17.667-7.701-20.789
						C403.663,372.063,398.511,369.069,397.187,368.316z"/>
					<path style="opacity:0.1;" d="M410.551,404.548l-42.232-24.383c-7.667,9.196-13.262,21.742-14.141,33.41
						c-0.765,10.141,2.197,17.439,7.453,20.642c1.349,0.822,6.566,3.781,7.811,4.521c4.016,2.386,9.348,2.405,15.372-0.493
						C396.011,432.859,406.207,419.026,410.551,404.548z"/>
					<path style="opacity:0.1;" d="M356.514,401.855c-1.228,3.901-2.046,7.859-2.337,11.721
						c-0.765,10.141,2.197,17.439,7.453,20.642c1.349,0.822,6.566,3.781,7.811,4.521c4.016,2.386,9.348,2.405,15.372-0.493
						c5.091-2.449,9.973-6.648,14.194-11.857L356.514,401.855z"/>
					<path id="XMLID_1070_" style="fill:#27DEBF;" d="M389.705,373.366c-14.022,6.745-26.483,26.736-27.834,44.652
						c-1.351,17.916,8.921,26.972,22.943,20.227c14.022-6.745,26.483-26.736,27.834-44.652
						C413.999,375.677,403.727,366.621,389.705,373.366z"/>
					<path id="XMLID_1042_" style="opacity:0.2;" d="M389.705,373.366c-14.022,6.745-26.483,26.736-27.834,44.652
						c-1.351,17.916,8.921,26.972,22.943,20.227c14.022-6.745,26.483-26.736,27.834-44.652
						C413.999,375.677,403.727,366.621,389.705,373.366z"/>
					<g id="XMLID_990_">
						<path id="XMLID_1040_" style="fill:#27DEBF;" d="M403.597,397.678c-0.656,5.474-2.891,11.5-6.304,16.975
							c-3.41,5.47-7.611,9.771-11.821,12.102c-4.462,2.472-8.467,2.467-11.271-0.004c-2.804-2.472-3.967-7.024-3.275-12.82
							c0.647-5.473,2.886-11.504,6.296-16.974c3.413-5.475,7.611-9.771,11.829-12.104c4.459-2.466,8.459-2.466,11.263,0.006
							C403.117,387.332,404.285,391.888,403.597,397.678z"/>
						<path id="XMLID_1038_" style="opacity:0.4;" d="M403.597,397.678c-0.656,5.474-2.891,11.5-6.304,16.975
							c-3.41,5.47-7.611,9.771-11.821,12.102c-4.462,2.472-8.467,2.467-11.271-0.004c-2.804-2.472-3.967-7.024-3.275-12.82
							c0.647-5.473,2.886-11.504,6.296-16.974c3.413-5.475,7.611-9.771,11.829-12.104c4.459-2.466,8.459-2.466,11.263,0.006
							C403.117,387.332,404.285,391.888,403.597,397.678z"/>
						<path id="XMLID_1015_" style="fill:#27DEBF;" d="M406.083,375.604c-3.876-3.418-9.473-3.635-15.749-0.62
							c-6.542,3.154-12.967,9.402-18.076,17.599c-5.109,8.196-8.265,17.317-8.9,25.678c-0.606,8.025,1.2,14.323,5.077,17.74
							c3.883,3.423,9.469,3.642,15.749,0.62c6.548-3.148,12.969-9.39,18.078-17.586c5.109-8.196,8.269-17.323,8.898-25.69
							C411.762,385.326,409.966,379.027,406.083,375.604z M400.314,384.86c2.804,2.472,3.971,7.028,3.283,12.819
							c-0.656,5.474-2.891,11.5-6.304,16.975c-3.41,5.47-7.611,9.771-11.821,12.102c-4.462,2.472-8.467,2.467-11.271-0.004
							c-2.804-2.472-3.967-7.024-3.275-12.82c0.647-5.473,2.886-11.504,6.296-16.974c3.413-5.475,7.611-9.771,11.829-12.104
							C393.509,382.388,397.51,382.388,400.314,384.86z"/>
					</g>
				</g>
				<g id="XMLID_849_">
					<path id="XMLID_865_" style="opacity:0.2;" d="M389.601,386.111c8.376-4.633,14.119,0.43,12.826,11.308
						c-1.292,10.878-9.13,23.452-17.506,28.084c-8.376,4.632-14.118-0.43-12.826-11.308
						C373.387,403.317,381.225,390.743,389.601,386.111z"/>
					<path id="XMLID_864_" style="fill:#27DEBF;" d="M389.601,386.111c8.376-4.633,14.119,0.43,12.826,11.308
						c-1.292,10.878-9.13,23.452-17.506,28.084c-8.376,4.632-14.118-0.43-12.826-11.308
						C373.387,403.317,381.225,390.743,389.601,386.111z"/>
					<path id="XMLID_859_" style="opacity:0.6;" d="M389.601,386.111c8.376-4.633,14.119,0.43,12.826,11.308
						c-1.292,10.878-9.13,23.452-17.506,28.084c-8.376,4.632-14.118-0.43-12.826-11.308
						C373.387,403.317,381.225,390.743,389.601,386.111z"/>
					<path id="XMLID_857_" style="fill:#27DEBF;" d="M400.024,395.301c-1.292,10.878-9.13,23.452-17.506,28.084
						c-3.463,1.915-6.474,2.169-8.726,1.043c-1.56-2.235-2.232-5.735-1.697-10.233c1.292-10.878,9.13-23.452,17.506-28.084
						c3.464-1.916,6.474-2.169,8.726-1.044C399.887,387.302,400.559,390.802,400.024,395.301z"/>
					<path id="XMLID_850_" style="opacity:0.5;" d="M400.024,395.301c-1.292,10.878-9.13,23.452-17.506,28.084
						c-3.463,1.915-6.474,2.169-8.726,1.043c-1.56-2.235-2.232-5.735-1.697-10.233c1.292-10.878,9.13-23.452,17.506-28.084
						c3.464-1.916,6.474-2.169,8.726-1.044C399.887,387.302,400.559,390.802,400.024,395.301z"/>
				</g>
				<g>
					<path style="fill:#27DEBF;" d="M395.531,396.908c-0.659-0.481-2.294-1.311-3.086-1.781c-0.768-0.457-1.482-0.452-2.26,0.019
						l0.713-2.17c-0.383-0.048-3.086-1.782-3.086-1.782c-0.383-0.048-0.775,0.014-1.159,0.144c-0.703,0.254-1.413,0.795-2.111,1.533
						c-1.24,1.31-2.321,3-3.381,5.047l-1.674-0.897l-2.594,5.815l0.347,0.259l1.198,0.884c0,0-1.445,2.726-1.725,6.808
						c-0.012,0.173-0.017,0.326-0.022,0.478c-0.061,1.68,0.294,2.937,1.161,3.562c-0.001,0.016-0.001,0.016-0.001,0.016
						c0.652,0.467,2.667,1.505,3.087,1.766c-0.001,0.016-0.001,0.016-0.001,0.016c0.829,0.594,1.733,0.354,2.652-0.38l-0.602,1.848
						l3.086,1.782c1.884-0.069,4.061-2.341,6.359-6.703l1.552,1.122l2.619-5.868l-1.552-1.122c0.971-2.557,1.55-4.816,1.661-6.587
						l0.003-0.047C396.818,398.878,396.45,397.575,395.531,396.908z"/>
					<g id="XMLID_749_">
						<path id="XMLID_751_" style="fill:#27DEBF;" d="M380.326,404.878l1.198,0.884c0,0-1.445,2.726-1.725,6.808
							c-0.012,0.174-0.017,0.326-0.022,0.478c-0.061,1.681,0.294,2.937,1.161,3.562c-0.001,0.016-0.001,0.016-0.001,0.016
							c0.924,0.662,1.941,0.293,2.97-0.648c0.087-0.08,0.181-0.181,0.268-0.26l0.029-0.027c0.094-0.1,0.188-0.201,0.282-0.302
							c0.082-0.09,0.165-0.18,0.249-0.286c0.036-0.048,0.071-0.079,0.101-0.122c0.065-0.074,0.13-0.148,0.19-0.233
							c0.536-0.667,1.063-1.445,1.575-2.239c0.25-0.391,0.501-0.798,0.748-1.216c0.357-0.592,0.708-1.195,1.042-1.766
							c0.136-0.243,0.266-0.465,0.396-0.687c0.941-1.643,1.643-2.832,2.191-3.511c0.346-0.434,0.635-0.684,0.888-0.724
							c0.138-0.023,0.266,0.008,0.386,0.09c0.467,0.341,0.463,1.512-0.625,3.955c-1.159,2.596-2.24,3.748-3.075,3.61l-2.478,7.615
							c1.884-0.069,4.061-2.341,6.359-6.703l1.552,1.122l2.62-5.868l-1.552-1.122c0.971-2.557,1.551-4.816,1.661-6.587l0.003-0.047
							c0.101-1.792-0.267-3.095-1.186-3.762c-2.039-1.489-4.38,1.761-6.574,5.467c-2.04,3.462-3.578,6.745-4.57,6.026
							c-0.617-0.455-0.318-1.955,0.538-3.875c1.365-3.066,2.668-3.711,3.343-3.545l2.63-8.005c-0.383-0.048-0.775,0.014-1.159,0.144
							c-0.702,0.254-1.413,0.795-2.111,1.533c-1.24,1.31-2.444,3.241-3.504,5.288l-1.551-1.137l-2.594,5.815L380.326,404.878z"/>
					</g>
					<g>
						<polygon style="fill:#F5F5F5;" points="379.979,404.619 382.739,399.533 384.124,399.941 382.573,398.804 						"/>
						<path style="fill:#F5F5F5;" d="M390.186,393.599l-1.917,7.382l0,0l0,0l2.63-8.004c-0.383-0.048-0.774,0.014-1.159,0.144
							c-0.702,0.254-1.413,0.795-2.111,1.533c-0.469,0.495-0.932,1.079-1.384,1.723c0.022-0.028,0.042-0.051,0.066-0.083
							C387.86,394.239,390.186,393.599,390.186,393.599z"/>
						<path style="fill:#F5F5F5;" d="M388.552,412.26l-2.478,7.614v0l2.629-7.119c0,0,1.531-0.62,2.451-2.74
							c0.85-1.959,0.98-2.623,0.98-2.623l-0.01,0.01c-0.133,0.376-0.29,0.782-0.497,1.248
							C390.468,411.246,389.387,412.398,388.552,412.26z"/>
						<polygon style="fill:#F5F5F5;" points="392.433,413.172 393.897,413.941 396.604,408.425 393.984,414.293 						"/>
					</g>
					<g>
						<path style="opacity:0.3;" d="M379.777,413.048c0.005-0.152,0.01-0.305,0.022-0.478c0.28-4.082,1.725-6.808,1.725-6.808
							l-1.198-0.884l-0.347-0.259l2.594-5.815l1.551,1.137c1.06-2.047,2.264-3.977,3.504-5.288c0.699-0.738,1.409-1.279,2.111-1.533
							c0.385-0.13,0.776-0.193,1.159-0.144l-0.345,1.051l0.345-1.051c-0.383-0.048-3.086-1.782-3.086-1.782
							c-0.383-0.048-0.775,0.014-1.159,0.144c-0.703,0.254-1.413,0.795-2.111,1.533c-1.24,1.31-2.321,3-3.381,5.047l-1.674-0.897
							l-2.594,5.815l0.347,0.259l1.198,0.884c0,0-1.445,2.726-1.725,6.808c-0.012,0.173-0.017,0.326-0.022,0.478
							c-0.061,1.68,0.294,2.937,1.161,3.562c-0.001,0.016-0.001,0.016-0.001,0.016c0.652,0.467,2.667,1.505,3.087,1.766
							C380.071,415.984,379.716,414.728,379.777,413.048z"/>
						<path style="opacity:0.3;" d="M391.626,408.65c1.088-2.443,1.092-3.614,0.625-3.955c-0.119-0.083-0.248-0.113-0.386-0.09
							c-0.253,0.04-0.543,0.29-0.889,0.724c-0.547,0.678-1.25,1.867-2.191,3.511c-0.13,0.222-0.259,0.444-0.396,0.687
							c-0.333,0.571-0.685,1.173-1.042,1.765c-0.246,0.418-0.498,0.825-0.748,1.216c-0.512,0.793-1.039,1.571-1.575,2.239
							c-0.06,0.085-0.125,0.159-0.19,0.233c-0.03,0.043-0.065,0.074-0.101,0.122c-0.083,0.106-0.166,0.196-0.249,0.286
							c-0.094,0.101-0.188,0.202-0.282,0.302l-0.029,0.027c-0.087,0.08-0.181,0.181-0.268,0.26
							c-0.106,0.097-0.212,0.184-0.318,0.268c0,0,0,0,0,0l-0.602,1.848l3.086,1.781l2.478-7.615
							C389.387,412.398,390.468,411.246,391.626,408.65z"/>
						<path style="opacity:0.3;" d="M384.926,404.526c-0.856,1.921-1.155,3.42-0.538,3.875c0.991,0.719,2.529-2.564,4.569-6.026
							c2.193-3.706,4.535-6.956,6.574-5.467c-0.659-0.481-2.294-1.311-3.086-1.781c-0.768-0.457-1.482-0.452-2.26,0.019
							l-1.917,5.835C387.594,400.815,386.291,401.46,384.926,404.526z"/>
						<path style="opacity:0.1;" d="M384.926,404.526c-0.856,1.921-1.155,3.42-0.538,3.875c0.991,0.719,2.529-2.564,4.569-6.026
							c2.193-3.706,4.535-6.956,6.574-5.467c-0.659-0.481-2.294-1.311-3.086-1.781c-0.768-0.457-1.482-0.452-2.26,0.019
							l-1.917,5.835C387.594,400.815,386.291,401.46,384.926,404.526z"/>
						<polygon style="opacity:0.4;" points="376.893,402.837 379.979,404.619 381.524,405.762 378.438,403.98 						"/>
						<path style="opacity:0.1;" d="M379.799,412.569c0.28-4.082,1.725-6.808,1.725-6.808l-3.086-1.782c0,0-1.445,2.726-1.725,6.808
							c-0.012,0.173-0.017,0.326-0.022,0.478c-0.061,1.68,0.294,2.937,1.161,3.562c-0.001,0.016-0.001,0.016-0.001,0.016
							c0.652,0.467,2.667,1.505,3.087,1.766c-0.867-0.625-1.222-1.881-1.161-3.562C379.782,412.895,379.787,412.743,379.799,412.569
							z"/>
						<path style="opacity:0.1;" d="M386.601,412.508c-0.512,0.793-1.039,1.571-1.575,2.239c-0.06,0.085-0.125,0.159-0.19,0.233
							c-0.03,0.043-0.065,0.074-0.101,0.122c-0.083,0.106-0.166,0.196-0.249,0.286c-0.094,0.101-0.188,0.202-0.282,0.302
							l-0.029,0.027c-0.087,0.08-0.181,0.181-0.268,0.26c-0.106,0.097-0.212,0.184-0.318,0.268c0,0,0,0,0,0l-0.602,1.848
							l3.086,1.781l2.478-7.615l-1.333-0.757C387.014,411.845,386.808,412.185,386.601,412.508z"/>
					</g>
				</g>
				<g id="XMLID_671_">
					<path id="XMLID_748_" style="fill:#F5F5F5;" d="M383.957,436.047c9.73-4.375,18.304-17.013,18.304-17.013
						c-5.109,8.196-11.53,14.438-18.078,17.586c-6.28,3.023-11.866,2.803-15.749-0.62
						C368.435,436.001,374.06,440.497,383.957,436.047z"/>
					<path id="XMLID_672_" style="fill:#F5F5F5;" d="M369.566,393.982c5.18-9.181,12.423-16.904,20.139-20.616
						c8.024-3.86,14.82-2.545,18.913,2.644c0,0-6.884-8.112-18.956-1.855C377.59,380.411,369.566,393.982,369.566,393.982z"/>
				</g>
			</g>
		</g>
		<path style="opacity:0.15;" d="M356.604,397.942c-2.758,1.779-3.302,2.549-0.34,4.724c2.962,2.175,9.857,5.598,9.857,5.598
			s-7.027-1.548-11.386-4.69C350.378,400.432,352.487,399.131,356.604,397.942z"/>
	</g>
</g>
<g id="Bills">
	<g id="Bills_5_">
		<path style="opacity:0.1;" d="M279.868,394.937c-4.066,3.06-8.85,5.497-13.938,5.571c2.209,2.646,4.687,5.127,7.663,6.866
			c2.977,1.739,6.505,2.694,9.908,2.145c3.97-0.641,7.369-3.227,10.093-6.184c2.724-2.957,4.947-6.349,7.692-9.287
			c2.361-2.528,5.493-4.833,8.936-4.509c-2.398-1.928-4.846-3.845-7.63-5.156c-3.835-1.806-7.818-1.953-11.226,0.772
			C287.454,388.283,283.889,391.91,279.868,394.937z"/>
		<g id="XMLID_612_">
			<path id="XMLID_668_" style="fill:#27DEBF;" d="M309.99,385.379c-18.267,4.262-11.908,16.73-30.175,20.992
				c-5.26-3.772-7.89-5.657-13.149-9.429c16.71-1.035,12.879-14.984,29.489-16.508C301.689,382.412,304.455,383.401,309.99,385.379z
				"/>
			<path style="opacity:0.3;" d="M302.168,386.183c-9.048,5.22-9.13,12.222-18.18,17.442c-0.952-0.333-2.242-0.385-3.546-0.216
				c-2.802-1.922-4.202-2.884-7.004-4.806c0.432-0.191,0.71-0.44,0.825-0.72c0.115-0.28,0.059-0.567-0.139-0.832
				c11.099-3.884,7.469-10.85,18.569-14.733c0.949,0.445,2.471,0.572,3.523,0.036c2.838,1.082,3.866,1.474,6.704,2.556
				c-0.447,0.184-0.739,0.404-0.865,0.634C301.929,385.775,301.976,385.997,302.168,386.183 M303.465,386.129
				c-0.817-0.321-0.509-0.949,0.93-1.275c-3.249-1.216-4.874-1.824-8.123-3.041c-1.124,0.685-2.476,0.455-3.293,0.134
				c-12.216,3.703-7.908,11.244-20.125,14.947c0.816,0.55,0.535,1.308-0.848,1.576c3.178,2.208,4.767,3.312,7.945,5.519
				c1.433-0.325,3.075-0.246,3.888,0.301C293.891,398.938,293.414,391.481,303.465,386.129L303.465,386.129z"/>
			<g style="opacity:0.3;">
				<path d="M284.12,390.131c1.483-1.947,4.64-2.59,6.844-1.536c2.204,1.055,2.661,3.623,1.228,5.835
					c-1.433,2.212-4.597,2.852-6.844,1.536C283.101,394.65,282.637,392.078,284.12,390.131z M291.428,394.024
					c1.166-1.773,0.749-3.88-1.04-4.754c-1.789-0.875-4.304-0.33-5.503,1.269c-1.199,1.599-0.778,3.707,1.041,4.754
					C287.744,396.34,290.262,395.797,291.428,394.024z"/>
			</g>
		</g>
	</g>
	<g id="Bills_4_">
		<path style="opacity:0.1;" d="M167.73,311.203c-0.041-0.004-0.082-0.007-0.122-0.011c0.211,2.735,0.557,5.856,2.029,8.247
			c1.081,2.133,2.62,4.064,4.6,5.404c2.515,1.703,5.664,2.377,8.685,2.069c4.344-0.441,8.228-2.762,12.232-4.502
			c5.702-2.478,12.1-3.835,18.175-2.51c-2.249-6.951-9.705-10.009-16.436-10.226c-2.105-0.068-4.32,0.619-6.42,0.919
			c-2.364,0.337-4.74,0.589-7.122,0.755c-4.764,0.332-9.553,0.32-14.315-0.039C168.6,311.277,168.165,311.241,167.73,311.203z"/>
		<g id="XMLID_573_">
			<path id="XMLID_608_" style="fill:#27DEBF;" d="M213.292,316.33c-18.038-5.145-18.534,8.842-36.572,3.697
				c-2.766-5.851-4.15-8.777-6.915-14.629c15.11,7.21,18.535-6.845,33.795-0.11C207.477,309.705,209.415,311.914,213.292,316.33z"/>
			<path style="opacity:0.3;" d="M206.065,313.235c-10.445,0.17-14.089,5.913-24.534,6.081c-0.671-0.754-1.772-1.425-2.995-1.911
				c-1.516-3.041-2.102-4.224-3.617-7.265c0.47,0.043,0.835-0.04,1.071-0.228c0.236-0.189,0.327-0.467,0.282-0.795
				c11.588,1.995,11.798-5.858,23.387-3.862c0.614,0.85,1.882,1.7,3.062,1.742c1.956,2.324,2.664,3.166,4.62,5.49
				c-0.481-0.056-0.842-0.005-1.064,0.135C206.054,312.762,205.987,312.979,206.065,313.235 M207.225,313.818
				c-0.559-0.677,0.016-1.076,1.432-0.663c-2.25-2.641-3.374-3.962-5.624-6.603c-1.315,0.053-2.385-0.805-2.944-1.482
				c-12.478-2.695-12.373,5.988-24.851,3.293c0.447,0.877-0.167,1.403-1.507,0.965c1.706,3.473,2.387,4.872,4.094,8.346
				c1.41,0.412,2.808,1.278,3.252,2.151C192.463,320.028,195.839,313.615,207.225,313.818L207.225,313.818z"/>
			<g style="opacity:0.3;">
				<path d="M188.681,307.994c2.242-0.886,5.314-0.01,6.729,1.789c1.415,1.799,0.567,4.027-1.76,5.145
					c-2.327,1.118-5.404,0.235-6.728-1.789S186.439,308.88,188.681,307.994z M193.178,314.272c1.881-0.889,2.539-2.734,1.399-4.21
					c-1.139-1.475-3.602-2.148-5.427-1.412c-1.824,0.736-2.48,2.585-1.399,4.21C188.833,314.485,191.298,315.161,193.178,314.272z"
					/>
			</g>
		</g>
	</g>
	<g id="Bills_3_">
		<path style="opacity:0.1;" d="M419.175,286.13c-5.429,2.302-10.418,4.231-16.489,3.418c1.72,0.231,3.353,3.419,4.271,4.716
			c2.866,4.05,6.579,7.713,11.844,7.879c3.347,0.105,6.63-1.005,9.613-2.527c2.983-1.522,5.733-3.457,8.615-5.163
			c4.032-2.387,9.141-4.919,13.868-3.026c-0.413-0.165-1.236-2.379-1.542-2.842c-0.666-1.008-1.43-1.95-2.272-2.817
			c-1.626-1.673-3.547-3.06-5.645-4.08c-1.857-0.903-4.139-1.944-6.252-1.888c-2.299,0.061-4.701,1.281-6.775,2.16
			C425.302,283.279,422.286,284.811,419.175,286.13z"/>
		<g id="XMLID_303_">
			<path id="XMLID_569_" style="fill:#27DEBF;" d="M450.885,285.73c-19.708-0.905-14.5,13.949-34.208,13.043
				c-4.944-5.684-7.416-8.526-12.36-14.209c17.576,2.172,15.305-10.627,32.881-8.455
				C442.672,279.957,445.411,281.881,450.885,285.73z"/>
			<g style="opacity:0.3;">
				<path d="M443.219,284.487c-10.311,2.563-12.985,10.599-23.076,12.141c-0.9-0.614-2.111-1.065-3.396-1.332
					c-2.34-2.856-4.132-4.55-6.472-7.406c0.419-0.086,0.718-0.264,0.883-0.514c0.166-0.249,0.188-0.552,0.087-0.878
					c11.882-0.518,10.746-8.598,22.629-9.115c0.92,0.459,2.133,0.803,3.397,1.035c2.552,2.029,4.364,2.946,6.916,4.975
					c-0.43,0.069-0.732,0.211-0.897,0.408C443.125,283.999,443.108,284.237,443.219,284.487 M444.951,284.992
					c-0.764-0.617-0.313-1.18,1.217-1.049c-3.051-2.389-5.113-3.486-8.164-5.875c-1.462-0.175-3.111-0.661-3.875-1.277
					c-13.256-0.176-11.262,9.099-24.518,8.923c0.711,0.856,0.257,1.564-1.205,1.389c2.752,3.405,4.75,5.375,7.501,8.781
					c1.524,0.131,3.18,0.765,3.887,1.618C431.708,296.428,433.273,287.339,444.951,284.992L444.951,284.992z"/>
			</g>
			<g style="opacity:0.3;">
				<path d="M430.427,289.184c-1.481,1.51-4.188,1.287-5.932-0.403c-1.744-1.69-1.873-4.062-0.384-5.376
					c1.489-1.314,4.193-1.094,5.932,0.403C431.781,285.305,431.907,287.674,430.427,289.184 M431.164,289.859
					c1.825-1.89,1.724-4.765-0.422-6.584c-2.145-1.82-5.531-2.137-7.369-0.545c-1.838,1.592-1.729,4.473,0.422,6.584
					C425.946,291.425,429.339,291.749,431.164,289.859L431.164,289.859z"/>
			</g>
		</g>
	</g>
</g>
<g id="Character">
	<g id="Character_4_">
		<g id="Waves_1_">
			<path style="opacity:0.15;" d="M295.515,290.541c0,0-7.177,4.553-4.354,12.316c0,0-4.544-3.798-2.122-8.507
				C291.091,290.361,295.515,290.541,295.515,290.541z"/>
			<path style="opacity:0.15;" d="M372.998,305.737c0,0,1.922,8.483-7.514,10.78c0,0,6.21,0.115,8.619-3.689
				C375.963,309.891,372.998,305.737,372.998,305.737z"/>
			<path style="opacity:0.15;" d="M336.066,285.262c0,0,25.725-3.315,40.611,9.049c14.886,12.364,7.575,22.418,7.575,22.418
				s11.665-13.102-4.814-24.753C357.174,276.237,336.066,285.262,336.066,285.262z"/>
			<path style="opacity:0.15;" d="M281.26,301.388c0,0-6.44,12.323,13.139,21.176c17.811,8.054,38.156,3.427,38.156,3.427
				s-15.99,9.191-38.826-0.409C271.374,316.185,281.26,301.388,281.26,301.388z"/>
		</g>
		<g>
			<g id="XMLID_3828_">
				<g id="XMLID_3829_">
					<path id="XMLID_3830_" style="fill:#FFA8A7;" d="M285.506,146.153c3.095-6.979,2.341-10.54-7.079-8.054
						c-5.904,1.557-10.657,5.757-11.541,19.946c-0.255,4.088-0.1,8.806,0.009,18.355c0.126,10.968,0.846,22.015,2.188,31.057
						c0.596,4.014,1.309,7.484,3.525,11.698c10.74,20.422,25.777,34.068,32.993,47.251c9.088-0.618,21.723-15.582,14.959-24.96
						c-7.725-3.262-29.049-26.786-32.009-37.96c-1.372-5.18-2.842-10.332-4.079-15.547c-0.7-2.952-1.344-5.92-1.838-8.914
						c-0.475-2.88-1.453-6.086-0.274-8.876c0.699-1.654,1.81-3.094,2.761-4.617c1.041-1.667,2.083-3.536,2.686-5.415
						c0.578-1.801,1.074-3.604,1.848-5.352c0.353-0.797,0.735-1.581,1.146-2.35c0.323-0.604,0.795-1.28,0.481-1.999
						c-0.576-1.319-3.102-0.426-3.914,0.226c-1.386,1.113-2.26,2.719-3.232,4.173c-0.216,0.323-0.587,0.684-0.932,0.505
						c-0.287-0.149-0.293-0.552-0.25-0.873c0.202-1.52,0.589-3.016,1.149-4.445C284.602,148.728,284.945,147.419,285.506,146.153z"
						/>
				</g>
			</g>
			<path style="fill:#F5F5F5;" d="M284.881,189.628c0,0,3.367,11.641,4.597,15.34c1.23,3.699,8.312,14.495,19.519,26.327
				c8.546,9.022,13.477,9.723,13.477,9.723l-17.042,29.173c-0.422-4.826-16.839-24.856-23.897-34.771
				c-7.058-9.915-11.77-18.354-12.94-25.995c-1.261-8.23-1.284-17.624-1.284-17.624S276.74,193.815,284.881,189.628z"/>
		</g>
		<g>
			<g>
				<path id="XMLID_3827_" style="fill:#FFFFFF;" d="M340.971,242.044c8.201,1.245,17.58,1.896,23.331,2.682
					c6.277,0.857,8.522,5.986,8.521,16.739c-0.001,15.813-8.089,42.19-8.089,42.19c0.035,7.601-54.473,12.799-59.444-3.555
					c0,0-0.254-23.345,0.251-32.389c0.889-15.914,10.087-26.089,15.956-26.538C321.496,241.172,326.871,239.903,340.971,242.044z"/>
			</g>
			<g id="XMLID_3761_">
				<g id="XMLID_3822_">
					<path style="fill:#263238;" d="M357.193,195.352c0,0,4.287,1.492,5.243,5.137c0.831,3.171-1.067,10.048-4.455,17.28
						c-3.388,7.232-6.066,11.463-7.587,13.348c-1.521,1.885-3.903,2.026-3.903,2.026l2.017-8.98l1.578-6.223
						c0,0-2.94-6.315-2.484-10.921c0.586-5.928,2.284-8.063,2.284-8.063L357.193,195.352z"/>
					<path id="XMLID_3826_" style="fill:#263238;" d="M358.007,196.663l6.782-1.607c-0.514-2.026-2.449-3.31-4.321-2.866
						C358.595,192.634,357.493,194.636,358.007,196.663z"/>
					<path id="XMLID_3825_" style="fill:#263238;" d="M348.334,202.667c-1.883,9.301-10.948,15.314-20.249,13.432
						c-9.301-1.882-15.314-10.948-13.432-20.249c1.882-9.301,10.948-15.314,20.249-13.432
						C344.203,184.301,350.216,193.367,348.334,202.667z"/>
					<path id="XMLID_3824_" style="fill:#FFA8A7;" d="M350.047,216.889c1.255,1.617,3.166-1.541,4.707-2.614
						c1.54-1.072,6.058-2.05,7.245,2.73c1.21,4.872-3.961,10.286-7.391,10.95c-4.18,0.809-6.267-3.052-6.267-3.052l-0.16,17.263
						c-6.515,7.685-15.904,10.885-18.194,14.531c-0.194-3.679-7.199-12.068-3.141-15.202l0.179-7.532c0,0-5.258-0.258-7.668-1.146
						c-4.011-1.478-5.553-5.033-5.902-9.769c-0.561-7.607,1.049-19.883,6.607-33.329c5.352-2.664,21.318,1.13,29.823,9.237
						C346.701,211.229,348.792,215.272,350.047,216.889z"/>
					<path style="fill:#263238;" d="M319.721,179.345c0.174-0.215,0.427-0.392,0.695-0.345c0.211,0.037,0.372,0.203,0.517,0.36
						c0.523,0.564,1.651,1.971,3.194,3.218c-0.015-1.722,0.31-3.444,0.938-5.046c0.386-0.985,1.146-3.291,2.46-3.292
						c0.782-0.001,1.313,0.758,1.769,1.394c4.121,5.747,11.167,4.87,17.23,6.279c5.069,1.178,10.812,4.479,12.129,9.899
						c0.602,2.479,0.308,4.907-2.088,6.062c-2.044,0.985-4.443,1.137-6.681,1.083c-10.516-0.254-25.914,1.027-31.542-9.944
						c-0.828-1.615-0.995-3.29-0.585-5.284c0.378-1.836,1.03-3.113,1.922-4.33C319.693,179.38,319.707,179.363,319.721,179.345z"/>
					<path id="XMLID_3823_" style="fill:#F28F8F;" d="M327.025,233.962c0,0,9.619,0.009,13.198-1.055
						c2.395-0.712,4.58-2.344,5.361-3.515c0,0-1.161,2.62-3.593,4.699c-2.974,2.543-15.025,2.335-15.025,2.335L327.025,233.962z"/>
				</g>
				<g id="XMLID_3762_">
					<path id="XMLID_3821_" style="fill:#263238;" d="M333.902,210.759c-0.215,1.063,0.44,2.09,1.464,2.294
						c1.024,0.204,2.027-0.492,2.243-1.555c0.215-1.063-0.44-2.09-1.464-2.294C335.121,209,334.117,209.696,333.902,210.759z"/>
					<path id="XMLID_3820_" style="fill:#263238;" d="M341.636,207l-3.003-3.507c-0.966,0.878-1.076,2.376-0.247,3.344
						C339.215,207.806,340.67,207.878,341.636,207z"/>
					<path id="XMLID_3772_" style="fill:#263238;" d="M322.972,199.591l-4.345,1.665c0.418,1.227,1.73,1.848,2.93,1.388
						C322.757,202.185,323.39,200.818,322.972,199.591z"/>
					<path id="XMLID_3769_" style="fill:#263238;" d="M318.727,207.096c-0.215,1.063,0.44,2.09,1.464,2.294
						c1.023,0.204,2.027-0.492,2.242-1.555c0.215-1.062-0.44-2.09-1.464-2.294C319.946,205.337,318.942,206.034,318.727,207.096z"/>
					<polygon id="XMLID_3763_" style="fill:#F28F8F;" points="327.988,208.467 325.272,218.918 319.858,215.759 					"/>
					<g>
						<path style="fill:#B16668;" d="M328.505,225.623c3.25-0.508,4.341,0.008,3.986-1.384c-0.355-1.391-2.44-3.338-5.183-2.884
							c-2.742,0.454-3.258,3.236-3.137,4.121C324.385,227.032,325.587,226.08,328.505,225.623z"/>
						<path style="fill:#F28F8F;" d="M328.505,225.623c2.798-0.438,3.989-0.123,4.041-0.913c0.007-0.143-0.011-0.299-0.055-0.471
							c-0.001-0.002-0.002-0.005-0.003-0.007c-0.041-0.158-0.108-0.323-0.192-0.491c-0.043-0.084-0.101-0.169-0.153-0.254
							c-0.043-0.07-0.085-0.139-0.135-0.209c-1.467-0.353-3.023,0.369-3.663,1.796c-0.09,0.201-0.143,0.407-0.186,0.613
							C328.277,225.667,328.381,225.643,328.505,225.623z"/>
					</g>
				</g>
			</g>
			<path style="fill:#37474F;" d="M339.743,253.943c-5.606,5.538-7.452,6.593-9.957,6.725c-2.505,0.132-6.77-5.802-6.483-8.966
				l-1.56,2.505c0,0,1.469,8.571,7.327,9.757c5.858,1.187,13.614-8.333,13.614-8.333L339.743,253.943z"/>
			<g>
				<path style="fill:#455A64;" d="M332.959,260.883c0.03,2.009,0.757,2.256,0.757,2.256s-2.285,3.602-4.41,4.075
					c0,0-1.357-2.065-4.306-0.809c0,0-1.64-2.401-0.43-5.502c0,0,0.865-1.848,2.261-2.321c1.873-0.634,4.04-0.126,6.489,0.93
					C333.32,259.512,332.868,260.031,332.959,260.883z"/>
				<path style="fill:#455A64;" d="M329.306,267.214c-0.321,5.415,0.001,26.829,0.962,35.492c0.774,6.982-1.502,9.384-10.061,16.231
					c-1.228,0.982-9.074,1.778-14.981,1.375c-2.299-0.157-5.204-1.027-3.581-3.585c1.62-2.553,4.469-7.415,5.443-7.841
					c2.896-1.268,8.735-3.949,10.65-6.222c1.915-2.274,3.878-28.165,7.263-36.259C328.385,258.311,329.306,267.214,329.306,267.214z
					"/>
			</g>
			<g>
				<path style="fill:#F0F0F0;" d="M348.231,236.768c1.194,0.091,1.811,0.271,2.785,2.218c1.111,2.221,2.069,4.249,2.069,4.249
					s-0.707,3.903-4.05,8.606c-3.451,4.855-7.362,7.518-7.362,7.518s-2.788-3.289-4.175-4.411c-2.792-2.259-5.217-0.539-5.217-0.539
					c0.342-0.804,1.816-3.095,2.639-3.965c0.729-0.771,3.699-1.673,7.755-4.225c4.057-2.552,5.532-6.956,5.532-6.956
					L348.231,236.768z"/>
				<path style="fill:#F0F0F0;" d="M329.069,253.752c0-2.186-1.354-3.812-1.72-4.518c-1.05-2.031-0.49-3.623-0.504-5.335
					c-0.014-1.712,0.075-5.549,0.075-5.549c-1.381,0.178-2.464,0.413-3.324,2.558c-0.861,2.145-2.665,4.773-2.665,9.595
					c0,4.334,0.403,5.127,0.403,5.127s1.833-1.724,4.116-3.086C326.259,252.062,328.074,251.656,329.069,253.752z"/>
			</g>
		</g>
		<g>
			<g id="XMLID_2081_">
				<g id="XMLID_3759_">
					<path id="XMLID_3760_" style="fill:#FFA8A7;" d="M394.538,163.483c0,0-0.376-6.283-2.659-11.433
						c-3.095-6.979-2.341-10.54,7.08-8.054c5.904,1.557,11.045,6.173,11.929,20.362c0.255,4.088,0.392,12.876-0.092,18.044
						c-1.022,10.92-2.369,20.917-3.711,29.958c-0.596,4.014-2.452,10.646-4.241,14.289c-12.981,26.419-22.673,33.822-31.517,50.406
						c-10.394-1.22-11.394-25.353-9.053-31.479c0,0,21.481-21.188,25.106-32.167c3.34-10.118,8.163-27.785,7.909-36.261"/>
				</g>
			</g>
			<path style="fill:#F5F5F5;" d="M361.335,244.363c6.787-4.843,17.91-19.768,20.979-23.204c3.068-3.436,9.777-24.068,9.777-24.068
				s6.685,4.163,16.954,1.117c0,0,0.112,6.47-1.157,16.04s-4.716,16.126-11.608,27.902c-6.892,11.776-25.711,38.084-25.711,38.084
				s-9.806-5.076-10.713-17.228C358.948,250.854,361.335,244.363,361.335,244.363z"/>
			<g id="XMLID_1244_">
				<g id="XMLID_1382_">
					<path style="fill:#27DEBF;" d="M377.644,72.642c5.255-2.99,12.175-2.954,19.977,0.8c18.458,8.879,34.862,35.195,36.64,58.779
						c1.007,13.35-2.892,22.957-9.811,27.173c-1.775,1.082-8.644,4.977-10.283,5.951c-5.286,3.14-12.305,3.166-20.236-0.649
						c-18.458-8.879-34.863-35.195-36.64-58.78c-1.022-13.558,3.015-23.256,10.138-27.367
						C369.118,77.575,375.901,73.634,377.644,72.642z"/>
					<path style="opacity:0.25;" d="M377.644,72.642c5.255-2.99,12.175-2.954,19.977,0.8c18.458,8.879,34.862,35.195,36.64,58.779
						c1.007,13.35-2.892,22.957-9.811,27.173c-1.775,1.082-8.644,4.977-10.283,5.951c-5.286,3.14-12.305,3.166-20.236-0.649
						c-18.458-8.879-34.863-35.195-36.64-58.78c-1.022-13.558,3.015-23.256,10.138-27.367
						C369.118,77.575,375.901,73.634,377.644,72.642z"/>
					<path style="opacity:0.1;" d="M360.052,120.337l55.594-32.097c10.093,12.106,17.457,28.621,18.615,43.981
						c1.007,13.35-2.892,22.957-9.811,27.173c-1.775,1.082-8.644,4.977-10.283,5.951c-5.286,3.14-12.305,3.166-20.236-0.649
						C379.191,157.606,365.77,139.396,360.052,120.337z"/>
					<path style="opacity:0.1;" d="M431.185,116.792c1.617,5.136,2.693,10.345,3.076,15.429c1.007,13.35-2.892,22.957-9.811,27.173
						c-1.775,1.082-8.644,4.977-10.283,5.951c-5.286,3.14-12.305,3.166-20.236-0.649c-6.702-3.224-13.128-8.751-18.685-15.608
						L431.185,116.792z"/>
					<path id="XMLID_2044_" style="fill:#27DEBF;" d="M357.291,105.917c1.778,23.584,18.182,49.901,36.64,58.78
						c18.458,8.879,31.98-3.043,30.202-26.627c-1.778-23.584-18.182-49.901-36.64-58.779
						C369.035,70.411,355.513,82.332,357.291,105.917z"/>
					<path id="XMLID_2041_" style="opacity:0.2;" d="M357.291,105.917c1.778,23.584,18.182,49.901,36.64,58.78
						c18.458,8.879,31.98-3.043,30.202-26.627c-1.778-23.584-18.182-49.901-36.64-58.779
						C369.035,70.411,355.513,82.332,357.291,105.917z"/>
					<g id="XMLID_1384_">
						<path id="XMLID_2038_" style="fill:#27DEBF;" d="M369.206,111.295c0.863,7.206,3.806,15.138,8.299,22.346
							c4.488,7.201,10.019,12.862,15.561,15.931c5.874,3.254,11.146,3.248,14.837-0.006c3.691-3.254,5.221-9.246,4.311-16.876
							c-0.852-7.204-3.799-15.143-8.288-22.344c-4.493-7.208-10.019-12.862-15.572-15.933c-5.87-3.246-11.135-3.247-14.826,0.007
							C369.837,97.674,368.3,103.672,369.206,111.295z"/>
						<path id="XMLID_1398_" style="opacity:0.4;" d="M369.206,111.295c0.863,7.206,3.806,15.138,8.299,22.346
							c4.488,7.201,10.019,12.862,15.561,15.931c5.874,3.254,11.146,3.248,14.837-0.006c3.691-3.254,5.221-9.246,4.311-16.876
							c-0.852-7.204-3.799-15.143-8.288-22.344c-4.493-7.208-10.019-12.862-15.572-15.933c-5.87-3.246-11.135-3.247-14.826,0.007
							C369.837,97.674,368.3,103.672,369.206,111.295z"/>
						<path id="XMLID_1388_" style="fill:#27DEBF;" d="M359.25,105.589c0.829,11.014,4.988,23.028,11.714,33.818
							c6.726,10.79,15.178,19.006,23.798,23.15c8.267,3.979,15.62,3.69,20.731-0.816c5.103-4.499,7.481-12.789,6.683-23.353
							c-0.837-11.006-4.991-23.012-11.716-33.802c-6.726-10.79-15.183-19.015-23.795-23.167c-8.262-3.97-15.629-3.683-20.732,0.816
							C360.822,86.742,358.457,95.034,359.25,105.589z M388.354,94.413c5.553,3.071,11.079,8.725,15.572,15.933
							c4.488,7.201,7.436,15.14,8.288,22.344c0.91,7.63-0.62,13.622-4.311,16.876c-3.691,3.254-8.963,3.259-14.837,0.006
							c-5.542-3.069-11.073-8.731-15.561-15.931c-4.493-7.208-7.435-15.14-8.299-22.346c-0.906-7.622,0.631-13.62,4.322-16.874
							C377.219,91.166,382.485,91.167,388.354,94.413z"/>
					</g>
				</g>
				<g id="XMLID_1366_">
					
						<ellipse id="XMLID_1380_" transform="matrix(0.8777 -0.4792 0.4792 0.8777 -10.6788 202.1441)" style="opacity:0.2;" cx="390.71" cy="121.994" rx="15.624" ry="30.954"/>
					
						<ellipse id="XMLID_1379_" transform="matrix(0.8777 -0.4792 0.4792 0.8777 -10.6788 202.1441)" style="fill:#27DEBF;" cx="390.71" cy="121.994" rx="15.624" ry="30.954"/>
					
						<ellipse id="XMLID_1377_" transform="matrix(0.8777 -0.4792 0.4792 0.8777 -10.6788 202.1441)" style="opacity:0.6;" cx="390.71" cy="121.994" rx="15.624" ry="30.954"/>
					<path id="XMLID_1376_" style="fill:#27DEBF;" d="M373.909,108.164c1.701,14.32,12.019,30.871,23.045,36.97
						c4.559,2.521,8.522,2.855,11.487,1.374c2.054-2.942,2.938-7.55,2.234-13.471c-1.701-14.319-12.019-30.871-23.045-36.969
						c-4.56-2.522-8.523-2.855-11.487-1.374C374.089,97.635,373.205,102.243,373.909,108.164z"/>
					<path id="XMLID_1367_" style="opacity:0.5;" d="M373.909,108.164c1.701,14.32,12.019,30.871,23.045,36.97
						c4.559,2.521,8.522,2.855,11.487,1.374c2.054-2.942,2.938-7.55,2.234-13.471c-1.701-14.319-12.019-30.871-23.045-36.969
						c-4.56-2.522-8.523-2.855-11.487-1.374C374.089,97.635,373.205,102.243,373.909,108.164z"/>
				</g>
				<g>
					<path style="fill:#27DEBF;" d="M402.861,131.807c-0.177-4.775-2.664-8.119-5.595-10.887l1.406,0.363l4.062-2.345
						c-0.182-0.912-0.436-1.781-0.729-2.598c-0.545-1.482-1.271-2.823-2.113-4.029c-1.495-2.141-3.353-3.855-5.204-5.173
						l-0.153-4.209l-5.028-2.906l-4.062,2.345l0.032,1.07l0.008,0.231c-0.325,0.104-0.658,0.251-0.994,0.453
						c-0.114,0.069-0.211,0.141-0.308,0.214c-0.474,0.348-2.815,1.568-3.754,2.132c-0.114,0.069-0.211,0.141-0.308,0.214
						c-1.073,0.788-1.653,2.301-1.561,4.648c-0.01,0.006-0.01,0.006-0.01,0.006c0.101,2.499,0.891,4.644,2.04,6.5
						c0.097,0.157,0.212,0.319,0.309,0.476l0.033,0.053c0.114,0.162,0.228,0.323,0.343,0.485c0.101,0.141,0.202,0.281,0.314,0.416
						c0.049,0.057,0.088,0.119,0.131,0.166c0.082,0.109,0.164,0.218,0.249,0.311c0.708,0.869,1.481,1.658,2.254,2.402
						c0.348,0.331,0.707,0.654,1.067,0.967l-1.852-0.463l-4.062,2.345c1.083,4.313,3.69,8.085,7.656,10.984l0.163,4.203l5.075,2.809
						l4.062-2.345l-0.051-1.316c0.294-0.081,0.57-0.189,0.816-0.343l0.031-0.018c0.614-0.399,3.331-1.89,4.031-2.327l0.031-0.018
						C402.354,135.867,402.956,134.297,402.861,131.807z"/>
					<path style="opacity:0.3;" d="M402.861,131.807c-0.177-4.775-2.664-8.119-5.595-10.887l1.406,0.363l4.062-2.345
						c-0.182-0.912-0.436-1.781-0.729-2.598c-0.545-1.482-1.271-2.823-2.113-4.029c-1.495-2.141-3.353-3.855-5.204-5.173
						l-0.153-4.209l-5.028-2.906l-4.062,2.345l0.032,1.07l0.008,0.231c-0.325,0.104-0.658,0.251-0.994,0.453
						c-0.114,0.069-0.211,0.141-0.308,0.214c-0.474,0.348-2.815,1.568-3.754,2.132c-0.114,0.069-0.211,0.141-0.308,0.214
						c-1.073,0.788-1.653,2.301-1.561,4.648c-0.01,0.006-0.01,0.006-0.01,0.006c0.101,2.499,0.891,4.644,2.04,6.5
						c0.097,0.157,0.212,0.319,0.309,0.476l0.033,0.053c0.114,0.162,0.228,0.323,0.343,0.485c0.101,0.141,0.202,0.281,0.314,0.416
						c0.049,0.057,0.088,0.119,0.131,0.166c0.082,0.109,0.164,0.218,0.249,0.311c0.708,0.869,1.481,1.658,2.254,2.402
						c0.348,0.331,0.707,0.654,1.067,0.967l-1.852-0.463l-4.062,2.345c1.083,4.313,3.69,8.085,7.656,10.984l0.163,4.203l5.075,2.809
						l4.062-2.345l-0.051-1.316c0.294-0.081,0.57-0.189,0.816-0.343l0.031-0.018c0.614-0.399,3.331-1.89,4.031-2.327l0.031-0.018
						C402.354,135.867,402.956,134.297,402.861,131.807z"/>
					<polygon style="opacity:0.1;" points="392.27,142.99 392.107,138.787 396.281,139.329 396.332,140.645 					"/>
					<polygon style="opacity:0.1;" points="389.515,124.166 385.453,126.511 379.376,124.993 383.438,122.648 					"/>
					<polygon style="opacity:0.1;" points="390.472,105.275 394.534,102.929 394.687,107.138 390.625,109.484 					"/>
					<g id="XMLID_1337_">
						<path id="XMLID_1360_" style="fill:#27DEBF;" d="M385.476,103.439l0.115,3.254c0,0-2.484-1.833-5.162-0.226
							c-0.114,0.069-0.211,0.141-0.308,0.214c-1.073,0.788-1.653,2.301-1.561,4.648c-0.01,0.006-0.01,0.006-0.01,0.006
							c0.101,2.499,0.891,4.644,2.04,6.5c0.097,0.157,0.212,0.319,0.309,0.476l0.033,0.053c0.114,0.162,0.228,0.323,0.343,0.485
							c0.101,0.141,0.202,0.281,0.314,0.416c0.049,0.057,0.088,0.119,0.131,0.166c0.082,0.109,0.164,0.218,0.249,0.311
							c0.709,0.869,1.481,1.658,2.254,2.402c0.38,0.361,0.771,0.717,1.165,1.056c0.563,0.497,1.13,0.976,1.667,1.431
							c0.226,0.181,0.434,0.358,0.643,0.535c1.536,1.265,2.659,2.231,3.38,3.121c0.459,0.559,0.774,1.089,0.938,1.652
							c0.09,0.306,0.142,0.619,0.157,0.941c0.047,1.267-0.679,1.904-2.791,0.74c-2.245-1.242-3.554-3.103-3.93-5.107l-6.077-1.518
							c1.083,4.313,3.689,8.085,7.656,10.984l0.163,4.203l5.075,2.809l-0.163-4.203c2.117,0.83,3.834,0.922,4.99,0.199l0.031-0.018
							c1.164-0.756,1.766-2.325,1.671-4.815c-0.205-5.53-3.508-9.143-7.01-12.163c-3.267-2.801-6.147-4.539-6.249-7.225
							c-0.059-1.676,1.033-1.814,2.693-0.897c2.65,1.46,3.768,4.112,4.038,5.762l6.402,1.654c-0.182-0.912-0.436-1.781-0.729-2.598
							c-0.545-1.482-1.272-2.823-2.114-4.029c-1.495-2.141-3.353-3.855-5.204-5.173l-0.153-4.209l-5.028-2.906L385.476,103.439z"/>
					</g>
					<g>
						<polygon style="fill:#FAFAFA;" points="385.444,102.369 390.009,105.521 390.625,109.484 390.472,105.275 						"/>
						<path style="fill:#FAFAFA;" d="M380.59,117.836c0.097,0.157,0.212,0.319,0.309,0.476l0.033,0.053
							c0.114,0.162,0.229,0.323,0.343,0.485c0.101,0.141,0.202,0.281,0.314,0.416c0.049,0.057,0.088,0.119,0.131,0.166
							c0.082,0.109,0.163,0.218,0.249,0.311c0.16,0.197,0.333,0.376,0.499,0.565c-3.985-4.831-3.895-11.163-2.322-12.779
							c2.143-2.203,5.445-0.833,5.445-0.833s-2.484-1.833-5.162-0.226c-0.114,0.069-0.211,0.141-0.308,0.214
							c-1.073,0.788-1.653,2.301-1.561,4.648c-0.01,0.006-0.01,0.006-0.01,0.006C378.65,113.835,379.44,115.98,380.59,117.836z"/>
						<path style="fill:#FAFAFA;" d="M391.588,132.16c0.476-0.095,1.412-0.888,0.704-2.591c-0.731-1.758-1.749-2.345-3.992-3.906
							c0,0,0.002,0.005,0.002,0.005c1.22,1.019,2.156,1.852,2.776,2.617c0.46,0.559,0.774,1.089,0.939,1.652
							c0.09,0.306,0.142,0.62,0.157,0.941C392.197,131.512,392.027,131.988,391.588,132.16z"/>
						<polygon style="fill:#FAFAFA;" points="387.032,135.978 387.607,139.917 392.27,142.99 387.196,140.18 						"/>
						<g>
							<path style="fill:#FAFAFA;" d="M380.102,125.663l5.351,0.848l-6.077-1.518c0.651,2.594,1.865,4.988,3.583,7.119
								C380.604,129.066,380.102,125.663,380.102,125.663z"/>
							<path style="fill:#FAFAFA;" d="M383.246,132.468c-0.047-0.056-0.097-0.111-0.142-0.167
								C383.15,132.357,383.198,132.412,383.246,132.468z"/>
						</g>
					</g>
				</g>
				<g id="XMLID_1249_">
					<path id="XMLID_1335_" style="fill:#F5F5F5;" d="M395.059,161.802c-12.809-5.759-24.096-22.395-24.096-22.395
						c6.726,10.79,15.178,19.006,23.798,23.15c8.267,3.979,15.62,3.69,20.731-0.816C415.492,161.742,408.088,167.66,395.059,161.802
						z"/>
					<path id="XMLID_1271_" style="fill:#F5F5F5;" d="M414.003,106.428c-6.818-12.086-16.354-22.252-26.511-27.138
						c-10.563-5.081-19.509-3.35-24.897,3.48c0,0,9.063-10.678,24.953-2.442C403.44,88.564,414.003,106.428,414.003,106.428z"/>
				</g>
			</g>
			<path id="XMLID_1195_" style="fill:#FFA8A7;" d="M395.21,179.723c0.173-1.406-2.428-5.123-3.223-6.295
				c-2.3-3.391-2.522-6.634-3.79-10.183c-0.988-2.766-2.352-3.953-1.833-4.462c0.667-0.654,2.563-1.349,4.525,0.357
				c0.987,0.858,3.003,4.286,4.321,6.283C397.403,168.121,395.21,179.723,395.21,179.723z"/>
		</g>
	</g>
</g>
</svg>
